# xmcd
#
# Track frame offsets:
#	150
#	13713
#	23401
#	35709
#	47647
#	58394
#	70475
#	82443
#	94168
#	108519
#	121349
#	132948
#	145396
#	156515
#	167995
#	179388
#	188675
#	199183
#	211056
#	222661
#	235961
#	245896
#	262055
#	274784
#
# Disc length: 3778 seconds
#
# Revision: 1
# Processed by: cddbd v1.5.2PL0 Copyright (c) Steve Scherf et al.
# Submitted via: audiograbber 1.81.03
#
DISCID=800ec018
DTITLE=The Poncello Records Story - Tenessee R&B
DYEAR=2007
DGENRE=Blues
TTITLE0=Arthur K. Adams - The Same Thing
TTITLE1=Arthur K. Adams - Tend To Your Business
TTITLE2=Levert Allison - My All Is You
TTITLE3=Levert Allison - Please Send Me Someone To Love
TTITLE4=Earl Gaines - Let Me Down Easy
TTITLE5=Earl Gaines and Lucille Johns - You Are My Sunshine
TTITLE6=Alpha Zoe - Everybody Loves A Lover
TTITLE7=The Chellows - Be My Baby
TTITLE8=Herbert Hunter - Hide 'Nor Hair
TTITLE9=Herbert Hunter - I've Gotta Sit Down (And Get A Hold Of Myself)
TTITLE10=Herbert Hunter - Diddlin' And Daddlin'
TTITLE11=Herbert Hunter - Make Me Know
TTITLE12=Herbert Hunter - Happy Go Lucky
TTITLE13=Tim Jarrett - Worry
TTITLE14=Tim Jarrett - I Ain't Nothing But A Fool
TTITLE15=Ted Jarrett - Midway
TTITLE16=Janis Parks - Everyone Loves Me But You
TTITLE17=Ricky Rezell - What You Bet J
TTITLE18=Ricky Rezell - Little Willie Joe
TTITLE19=Thomas Henry - You Don't Want My Love
TTITLE20=The Tempo Rhythms - Popa Nickel
TTITLE21=The Tempo Rhythms - Catch A Donkey
TTITLE22=The Tempo Rhythms - Brick Wall
TTITLE23=Gene Allison - We're Having A Party
EXTD=
EXTT0=
EXTT1=
EXTT2=
EXTT3=
EXTT4=
EXTT5=
EXTT6=
EXTT7=
EXTT8=
EXTT9=
EXTT10=
EXTT11=
EXTT12=
EXTT13=
EXTT14=
EXTT15=
EXTT16=
EXTT17=
EXTT18=
EXTT19=
EXTT20=
EXTT21=
EXTT22=
EXTT23=
PLAYORDER=
